<?xml version="1.0" encoding="UTF-8"?>
<svg width="11px" height="16px" viewBox="0 0 11 16" version="1.1" xmlns="http://www.w3.org/2000/svg" xmlns:xlink="http://www.w3.org/1999/xlink">
    <!-- Generator: Sketch 52 (66869) - http://www.bohemiancoding.com/sketch -->
    <title>AngelList_Black_Victory_Hand</title>
    <desc>Created with Sketch.</desc>
    <g id="Page-1" stroke="none" stroke-width="1" fill="none" fill-rule="evenodd">
        <g id="AngelList_Black_Victory_Hand" fill="#1A1919">
            <path d="M8.40810448,6.65272222 C8.89068159,5.32155556 9.26730846,4.22261111 9.53749254,3.35588889 C9.80767662,2.48916667 9.94279602,1.95705556 9.94279602,1.75961111 C9.94279602,1.5475 9.89775622,1.38294444 9.80767662,1.26588889 C9.71748756,1.149 9.59320398,1.09038889 9.43482587,1.09038889 C9.23310448,1.09038889 9.02771642,1.26044444 8.81882587,1.6005 C8.60971642,1.94061111 8.37931841,2.4875 8.1271393,3.24072222 L7.04640299,6.41133333 L8.40810448,6.65272222 Z M6.97071642,9.60394444 C6.66091045,9.58933333 6.36719403,9.55644444 6.08995025,9.50522222 C5.81254229,9.45416667 5.54777612,9.38088889 5.29559701,9.28583333 C5.41074129,9.52 5.51340796,9.75388889 5.60359701,9.98794444 C5.69367662,10.2221667 5.76739303,10.4525556 5.82518408,10.6791111 C5.99806468,10.4597222 6.18002985,10.2605556 6.37097015,10.0812222 C6.56174627,9.902 6.76166169,9.74294444 6.97071642,9.60394444 Z M5.74949751,6.27972222 L4.58229353,2.85672222 C4.27971144,1.98633333 4.04553731,1.41783333 3.8798806,1.15072222 C3.71395025,0.883722222 3.53400995,0.750277778 3.33945771,0.750277778 C3.18819403,0.750277778 3.06555224,0.808944444 2.97202488,0.925777778 C2.87833333,1.04283333 2.83154229,1.20005556 2.83154229,1.39755556 C2.83154229,1.734 2.95746766,2.31916667 3.20981095,3.15294444 C3.46193532,3.98672222 3.84020398,5.08016667 4.34456219,6.43327778 C4.38779602,6.35283333 4.44887065,6.29616667 4.52827861,6.26322222 C4.60752239,6.23033333 4.71560697,6.21388889 4.85247761,6.21388889 C4.89571144,6.21388889 4.9821791,6.21766667 5.1118806,6.22483333 C5.24152736,6.23216667 5.45397512,6.25061111 5.74949751,6.27972222 Z M4.69037811,11.5787778 C4.81285572,11.5787778 4.92438806,11.5222222 5.02541294,11.4087222 C5.12627363,11.2953333 5.17673134,11.1728333 5.17673134,11.0411667 C5.17673134,10.9023333 5.07762189,10.5787222 4.87951244,10.0702222 C4.68123881,9.56188889 4.43458706,9.06272222 4.13922886,8.57266667 C3.9230597,8.20694444 3.71050249,7.93088889 3.50161194,7.74433333 C3.29250249,7.55783333 3.09450249,7.46455556 2.90717413,7.46455556 C2.75585572,7.46455556 2.58833831,7.56166667 2.40462189,7.75533333 C2.22090547,7.94916667 2.1290199,8.13016667 2.1290199,8.29838889 C2.1290199,8.47394444 2.2190995,8.73727778 2.39920398,9.08833333 C2.579199,9.43938889 2.82070647,9.81244444 3.12334328,10.2073889 C3.44037313,10.6390556 3.73934328,10.9753333 4.02036318,11.2167222 C4.30132836,11.4580556 4.52450249,11.5787778 4.69037811,11.5787778 Z M1.44816915,11.3154444 C1.54902985,11.4399444 1.68956716,11.6226667 1.86967164,11.864 C2.34518905,12.5296111 2.78453234,12.8623889 3.18819403,12.8623889 C3.3249005,12.8623889 3.44754229,12.8185 3.55562687,12.7307222 C3.66365672,12.6429444 3.71772637,12.5515556 3.71772637,12.4564444 C3.71772637,12.3467778 3.64565174,12.1640556 3.50161194,11.9078889 C3.35729851,11.6518889 3.15935323,11.3631667 2.90717413,11.0411667 C2.61898507,10.6681667 2.37928358,10.3957222 2.18850746,10.2238333 C1.99756716,10.0521111 1.84433333,9.966 1.72918905,9.966 C1.47684577,9.966 1.24447761,10.1031667 1.03208458,10.3774444 C0.81958209,10.6517222 0.713303483,10.9753333 0.713303483,11.3483333 C0.713303483,11.6483889 0.787129353,11.983 0.934835821,12.3522222 C1.08237811,12.7215556 1.29685075,13.0927778 1.57787065,13.4657778 C2.00298507,14.0436111 2.53054726,14.4877778 3.1611592,14.7986667 C3.79155224,15.1097778 4.48865672,15.2648889 5.25236318,15.2648889 C6.65735323,15.2648889 7.83353234,14.7328333 8.78095522,13.6687778 C9.72826866,12.6045556 10.2021443,11.2716111 10.2021443,9.66977778 C10.2021443,9.17988889 10.1659701,8.79044444 10.0940597,8.50138889 C10.0220398,8.21244444 9.90317413,8.00216667 9.73740796,7.8705 C9.44188557,7.622 8.86747761,7.39877778 8.01363682,7.20127778 C7.15990547,7.00383333 6.26824876,6.90505556 5.33883085,6.90505556 C5.07948259,6.90505556 4.89571144,6.94894444 4.78768159,7.03672222 C4.67959701,7.1245 4.62552736,7.27444444 4.62552736,7.4865 C4.62552736,7.98405556 4.89932338,8.34411111 5.44691542,8.56716667 C5.99434328,8.79044444 6.88052736,8.90183333 8.10552239,8.90183333 L8.54864179,8.90183333 C8.64950249,8.90183333 8.73055224,8.94022222 8.79179104,9.017 C8.85286567,9.09377778 8.89445771,9.209 8.91607463,9.36261111 C8.79343284,9.47961111 8.54141791,9.61327778 8.15953731,9.76305556 C7.77754726,9.91294444 7.48574627,10.0610556 7.28418905,10.2073889 C6.85185075,10.5293333 6.50422886,10.9113889 6.24126866,11.3538333 C5.97808955,11.7965 5.846801,12.2151111 5.846801,12.6100556 C5.846801,12.8514444 5.90245771,13.1421667 6.01431841,13.4822222 C6.1259602,13.8223889 6.18178109,14.0326111 6.18178109,14.1131111 L6.18178109,14.1898889 L6.16016418,14.2886111 C5.84302488,14.2666667 5.59281592,14.0785 5.4090995,13.7236111 C5.22538308,13.3688889 5.13349751,12.8953333 5.13349751,12.3028333 L5.13349751,12.2041111 C5.07570647,12.2553333 5.01999502,12.2918889 4.9659801,12.3138333 C4.91196517,12.3357778 4.85247761,12.3467778 4.78768159,12.3467778 C4.72277612,12.3467778 4.66153731,12.3412778 4.60391045,12.3302778 C4.5461194,12.3193333 4.48132338,12.3028333 4.40941294,12.2808889 C4.43102985,12.3615 4.44722886,12.44 4.45800995,12.5167778 C4.46884577,12.5936111 4.47420896,12.6539444 4.47420896,12.6978333 C4.47420896,12.9684444 4.36979104,13.2008333 4.16084577,13.3945 C3.95173632,13.5883333 3.70316915,13.6852222 3.41508955,13.6852222 C2.96124378,13.6852222 2.5001194,13.4603333 2.03177114,13.0105 C1.56331343,12.5606667 1.32930348,12.1201667 1.32930348,11.6885 C1.32930348,11.6080556 1.33833333,11.5367222 1.35633831,11.4745 C1.3741791,11.4125 1.40493532,11.3593333 1.44816915,11.3154444 Z M9.18625871,6.83922222 C9.83471144,6.96372222 10.2922239,7.2415 10.558796,7.67305556 C10.825204,8.10472222 10.9586816,8.78494444 10.9586816,9.71366667 C10.9586816,11.5568333 10.4128955,13.0653333 9.32132338,14.2392778 C8.22980597,15.4130556 6.83384577,16 5.13349751,16 C4.46342786,16 3.81322388,15.8774444 3.18277612,15.6324444 C2.55216418,15.3874444 2.01015423,15.0455 1.55625373,14.6066667 C1.03750249,14.1240556 0.64839801,13.6138889 0.389049751,13.0763333 C0.129646766,12.5387222 0,11.9885 0,11.4251667 C0,10.7961667 0.133313433,10.3099444 0.399830846,9.966 C0.666293532,9.62222222 1.08774129,9.38833333 1.66433831,9.26388889 C1.55625373,9.00783333 1.47684577,8.79211111 1.42655224,8.61655556 C1.37614925,8.441 1.3509204,8.30572222 1.3509204,8.21066667 C1.3509204,7.8815 1.52199502,7.54516667 1.86425373,7.20127778 C2.20634826,6.8575 2.52890547,6.68561111 2.83154229,6.68561111 C2.96124378,6.68561111 3.09795025,6.70938889 3.24220896,6.75694444 C3.38630348,6.80466667 3.55185075,6.88311111 3.73934328,6.99283333 C3.18441791,5.39833333 2.78108458,4.16777778 2.52890547,3.30105556 C2.27656219,2.43433333 2.15069154,1.83638889 2.15069154,1.50727778 C2.15069154,1.05383333 2.26578109,0.693722222 2.49650746,0.426611111 C2.72706965,0.159611111 3.04048756,0.0261666667 3.43670647,0.0261666667 C4.11383582,0.0261666667 4.97139801,1.56211111 6.0089005,4.63405556 C6.18889552,5.16066667 6.32593035,5.56655556 6.41956716,5.85183333 C6.49881095,5.62527778 6.61034328,5.30327778 6.75460199,4.88638889 C7.79210448,1.84372222 8.68540299,0.322388889 9.43482587,0.322388889 C9.80231343,0.322388889 10.0957562,0.448555556 10.3156468,0.700888889 C10.5353731,0.953222222 10.6452637,1.29166667 10.6452637,1.71572222 C10.6452637,2.03766667 10.524592,2.62633333 10.283194,3.48205556 C10.0416866,4.33783333 9.67616915,5.45683333 9.18625871,6.83922222 Z" id="Fill-1"></path>
        </g>
    </g>
</svg>