<?xml version="1.0" encoding="UTF-8"?>
<svg width="17px" height="11px" viewBox="0 0 17 11" version="1.1" xmlns="http://www.w3.org/2000/svg" xmlns:xlink="http://www.w3.org/1999/xlink">
    <!-- Generator: Sketch 52 (66869) - http://www.bohemiancoding.com/sketch -->
    <title>Shape</title>
    <desc>Created with Sketch.</desc>
    <g id="Page-1" stroke="none" stroke-width="1" fill="none" fill-rule="evenodd">
        <g id="behance" fill="#000000" fill-rule="nonzero">
            <path d="M4.64,0.987 C5.11,0.987 5.536,1.027 5.924,1.112 C6.31,1.194 6.639,1.33 6.918,1.518 C7.192,1.705 7.408,1.954 7.56,2.268 C7.71,2.578 7.786,2.965 7.786,3.423 C7.786,3.918 7.673,4.333 7.448,4.663 C7.222,4.993 6.888,5.265 6.444,5.475 C7.05,5.649 7.498,5.955 7.796,6.391 C8.096,6.831 8.241,7.361 8.241,7.971 C8.241,8.471 8.151,8.901 7.961,9.261 C7.771,9.631 7.511,9.931 7.181,10.161 C6.861,10.391 6.481,10.561 6.061,10.671 C5.651,10.781 5.221,10.841 4.781,10.841 L0,10.841 L0,0.99 L4.64,0.99 L4.64,0.987 Z M11.33,9.12 C11.623,9.406 12.047,9.55 12.596,9.55 C12.99,9.55 13.332,9.45 13.618,9.25 C13.902,9.053 14.074,8.84 14.141,8.62 L15.871,8.62 C15.601,9.477 15.171,10.09 14.601,10.458 C14.031,10.828 13.341,11.013 12.541,11.013 C11.981,11.013 11.481,10.923 11.021,10.743 C10.571,10.563 10.191,10.308 9.871,9.977 C9.561,9.645 9.321,9.251 9.151,8.789 C8.981,8.329 8.901,7.819 8.901,7.269 C8.901,6.729 8.991,6.239 9.171,5.779 C9.351,5.309 9.601,4.919 9.921,4.579 C10.251,4.239 10.631,3.979 11.081,3.779 C11.531,3.579 12.021,3.489 12.571,3.489 C13.181,3.489 13.701,3.599 14.161,3.839 C14.611,4.069 14.981,4.389 15.271,4.779 C15.571,5.169 15.771,5.619 15.901,6.129 C16.031,6.629 16.071,7.159 16.041,7.719 L10.9,7.719 C10.9,8.279 11.09,8.809 11.38,9.099 L11.33,9.12 Z M4.48,9.153 C4.693,9.153 4.896,9.133 5.087,9.091 C5.281,9.051 5.453,8.981 5.597,8.891 C5.743,8.801 5.863,8.671 5.95,8.501 C6.037,8.341 6.08,8.121 6.08,7.861 C6.08,7.361 5.937,7.001 5.653,6.781 C5.368,6.571 4.989,6.461 4.523,6.461 L2.167,6.461 L2.167,9.171 L4.48,9.171 L4.48,9.153 Z M13.58,5.376 C13.346,5.118 12.952,4.979 12.472,4.979 C12.159,4.979 11.9,5.029 11.692,5.139 C11.49,5.239 11.324,5.369 11.197,5.529 C11.071,5.689 10.985,5.849 10.935,6.029 C10.885,6.199 10.855,6.359 10.845,6.499 L14.03,6.499 C13.983,5.999 13.813,5.629 13.58,5.369 L13.58,5.376 Z M4.36,4.963 C4.744,4.963 5.062,4.873 5.313,4.687 C5.563,4.505 5.683,4.205 5.683,3.792 C5.683,3.562 5.643,3.374 5.563,3.227 C5.479,3.08 5.368,2.965 5.229,2.885 C5.089,2.801 4.929,2.743 4.749,2.712 C4.569,2.677 4.379,2.662 4.189,2.662 L2.16,2.662 L2.16,4.962 L4.36,4.962 L4.36,4.963 Z M10.445,1.647 L14.435,1.647 L14.435,2.619 L10.445,2.619 L10.445,1.639 L10.445,1.647 Z" id="Shape"></path>
        </g>
    </g>
</svg>