<?xml version="1.0" encoding="UTF-8"?>
<svg width="16px" height="16px" viewBox="0 0 16 16" version="1.1" xmlns="http://www.w3.org/2000/svg" xmlns:xlink="http://www.w3.org/1999/xlink">
    <!-- Generator: Sketch 52 (66869) - http://www.bohemiancoding.com/sketch -->
    <title>Shape</title>
    <desc>Created with Sketch.</desc>
    <g id="Page-1" stroke="none" stroke-width="1" fill="none" fill-rule="evenodd">
        <g id="codepen" fill="#000000" fill-rule="nonzero">
            <path d="M15.988,5.443 C15.984,5.423 15.981,5.403 15.976,5.385 L15.966,5.352 C15.96,5.335 15.954,5.318 15.946,5.302 C15.943,5.29 15.936,5.279 15.932,5.268 L15.909,5.223 L15.889,5.191 L15.859,5.151 L15.829,5.121 L15.789,5.091 L15.759,5.071 L15.719,5.041 L15.689,5.021 L15.679,5.011 L8.38,0.12 C8.15,-0.034 7.85,-0.034 7.62,0.12 L0.302,4.99 L0.292,5 L0.262,5.023 L0.222,5.055 L0.197,5.082 L0.163,5.119 L0.139,5.149 L0.109,5.189 C0.099,5.199 0.089,5.209 0.089,5.219 L0.059,5.259 L0.049,5.299 C0.039,5.309 0.039,5.329 0.029,5.349 L0.019,5.379 C0.009,5.399 0.009,5.419 0.009,5.439 L0.009,5.469 C0,5.5 0,5.53 0,5.56 L0,10.435 C0,10.465 0.002,10.495 0.006,10.525 L0.013,10.555 C0.016,10.575 0.019,10.595 0.026,10.613 L0.036,10.646 C0.042,10.664 0.046,10.681 0.054,10.696 L0.069,10.729 C0.069,10.739 0.079,10.759 0.089,10.769 L0.109,10.799 C0.119,10.809 0.129,10.829 0.139,10.839 L0.159,10.869 L0.189,10.899 C0.199,10.909 0.199,10.919 0.209,10.919 L0.249,10.949 L0.279,10.969 L0.289,10.979 L7.599,15.859 C7.709,15.939 7.849,15.969 7.979,15.969 C8.109,15.969 8.239,15.929 8.359,15.849 L15.68,11 L15.69,10.99 L15.72,10.968 L15.76,10.938 L15.79,10.912 L15.825,10.875 L15.849,10.845 L15.879,10.805 L15.899,10.773 L15.919,10.727 L15.929,10.691 L15.949,10.641 L15.959,10.611 L15.979,10.561 L15.979,5.561 C15.979,5.531 15.979,5.501 15.969,5.471 L15.959,5.441 L15.988,5.443 Z M8,9.626 L5.568,8 L8,6.374 L10.432,8 L8,9.626 Z M7.312,5.18 L4.332,7.173 L1.926,5.563 L7.312,1.973 L7.312,5.18 L7.312,5.18 Z M3.095,8 L1.375,9.15 L1.375,6.85 L3.095,8 Z M4.332,8.828 L7.312,10.821 L7.312,14.031 L1.926,10.441 L4.332,8.831 L4.332,8.828 Z M8.687,10.821 L11.667,8.831 L14.074,10.441 L8.687,14.031 L8.687,10.831 L8.687,10.821 Z M12.905,8 L14.625,6.85 L14.625,9.15 L12.905,8 Z M11.668,7.173 L8.688,5.18 L8.688,1.97 L14.074,5.56 L11.668,7.17 L11.668,7.173 Z" id="Shape"></path>
        </g>
    </g>
</svg>